ply
format ascii 1.0
comment Created by Blender 2.79 (sub 0) - www.blender.org, source file: ''
element vertex 192
property float x
property float y
property float z
property float nx
property float ny
property float nz
element face 64
property list uchar uint vertex_indices
end_header
0.599500 0.533400 0.160000 0.881764 0.471690 0.000000
0.621700 0.491900 0.160000 0.881764 0.471690 0.000000
0.621700 0.491900 0.000000 0.881764 0.471690 0.000000
0.599500 0.533400 0.000000 0.881764 0.471690 0.000000
0.569700 0.230300 0.160000 0.633469 -0.773768 0.000000
0.533300 0.200500 0.160000 0.633469 -0.773768 0.000000
0.533300 0.200500 0.000000 0.633469 -0.773768 0.000000
0.569700 0.230300 0.000000 0.633469 -0.773768 0.000000
0.178300 0.308200 0.160000 -0.956648 -0.291246 0.000000
0.164600 0.353200 0.160000 -0.956648 -0.291246 0.000000
0.164600 0.353200 0.000000 -0.956648 -0.291246 0.000000
0.178300 0.308200 0.000000 -0.956648 -0.291246 0.000000
0.353200 0.635400 0.160000 -0.097819 0.995204 0.000000
0.400000 0.640000 0.160000 -0.097819 0.995204 0.000000
0.400000 0.640000 0.000000 -0.097819 0.995204 0.000000
0.353200 0.635400 0.000000 -0.097819 0.995204 0.000000
0.621700 0.491900 0.160000 0.956648 0.291246 0.000000
0.635400 0.446900 0.160000 0.956648 0.291246 0.000000
0.635400 0.446900 0.000000 0.956648 0.291246 0.000000
0.621700 0.491900 0.000000 0.956648 0.291246 0.000000
0.446800 0.635400 0.160000 0.289299 0.957239 0.000000
0.491800 0.621800 0.160000 0.289299 0.957239 0.000000
0.491800 0.621800 0.000000 0.289299 0.957239 0.000000
0.446800 0.635400 0.000000 0.289299 0.957239 0.000000
0.621700 0.308200 0.000000 0.956648 -0.291246 0.000000
0.635400 0.353200 0.000000 0.956648 -0.291246 0.000000
0.635400 0.353200 0.160000 0.956648 -0.291246 0.000000
0.621700 0.308200 0.160000 0.956648 -0.291246 0.000000
0.200400 0.533400 0.160000 -0.771869 0.635782 0.000000
0.230300 0.569700 0.160000 -0.771869 0.635782 0.000000
0.230300 0.569700 0.000000 -0.771869 0.635782 0.000000
0.200400 0.533400 0.000000 -0.771869 0.635782 0.000000
0.446800 0.164600 0.160000 0.097819 -0.995204 0.000000
0.400000 0.160000 0.160000 0.097819 -0.995204 0.000000
0.400000 0.160000 0.000000 0.097819 -0.995204 0.000000
0.446800 0.164600 0.000000 0.097819 -0.995204 0.000000
0.635400 0.446900 0.160000 0.995224 0.097612 0.000000
0.640000 0.400000 0.160000 0.995224 0.097612 0.000000
0.640000 0.400000 0.000000 0.995224 0.097612 0.000000
0.635400 0.446900 0.000000 0.995224 0.097612 0.000000
0.599500 0.266700 0.000000 0.881764 -0.471690 0.000000
0.621700 0.308200 0.000000 0.881764 -0.471690 0.000000
0.621700 0.308200 0.160000 0.881764 -0.471690 0.000000
0.599500 0.266700 0.160000 0.881764 -0.471690 0.000000
0.533300 0.200500 0.160000 0.471691 -0.881764 0.000000
0.491800 0.178300 0.160000 0.471691 -0.881764 0.000000
0.491800 0.178300 0.000000 0.471691 -0.881764 0.000000
0.533300 0.200500 0.000000 0.471691 -0.881764 0.000000
0.400000 0.640000 0.160000 0.097819 0.995204 0.000000
0.446800 0.635400 0.160000 0.097819 0.995204 0.000000
0.446800 0.635400 0.000000 0.097819 0.995204 0.000000
0.400000 0.640000 0.000000 0.097819 0.995204 0.000000
0.266600 0.599600 0.160000 -0.471691 0.881764 0.000000
0.308100 0.621800 0.160000 -0.471691 0.881764 0.000000
0.308100 0.621800 0.000000 -0.471691 0.881764 0.000000
0.266600 0.599600 0.000000 -0.471691 0.881764 0.000000
0.640000 0.400000 0.160000 0.995204 -0.097819 0.000000
0.635400 0.353200 0.160000 0.995204 -0.097819 0.000000
0.635400 0.353200 0.000000 0.995204 -0.097819 0.000000
0.640000 0.400000 0.000000 0.995204 -0.097819 0.000000
0.266600 0.200500 0.160000 -0.634512 -0.772913 0.000000
0.230300 0.230300 0.160000 -0.634512 -0.772913 0.000000
0.230300 0.230300 0.000000 -0.634512 -0.772913 0.000000
0.266600 0.200500 0.000000 -0.634512 -0.772913 0.000000
0.164600 0.446900 0.160000 -0.956648 0.291246 0.000000
0.178300 0.491900 0.160000 -0.956648 0.291246 0.000000
0.178300 0.491900 0.000000 -0.956648 0.291246 0.000000
0.164600 0.446900 0.000000 -0.956648 0.291246 0.000000
0.353200 0.164600 0.160000 -0.290655 -0.956828 0.000000
0.308100 0.178300 0.160000 -0.290655 -0.956828 0.000000
0.308100 0.178300 0.000000 -0.290655 -0.956828 0.000000
0.353200 0.164600 0.000000 -0.290655 -0.956828 0.000000
0.569700 0.569700 0.160000 0.772913 0.634512 0.000000
0.599500 0.533400 0.160000 0.772913 0.634512 0.000000
0.599500 0.533400 0.000000 0.772913 0.634512 0.000000
0.569700 0.569700 0.000000 0.772913 0.634512 0.000000
0.160000 0.400000 0.160000 -0.995224 0.097613 0.000000
0.164600 0.446900 0.160000 -0.995224 0.097613 0.000000
0.164600 0.446900 0.000000 -0.995224 0.097613 0.000000
0.160000 0.400000 0.000000 -0.995224 0.097613 0.000000
0.400000 0.160000 0.160000 -0.097819 -0.995204 0.000000
0.353200 0.164600 0.160000 -0.097819 -0.995204 0.000000
0.353200 0.164600 0.000000 -0.097819 -0.995204 0.000000
0.400000 0.160000 0.000000 -0.097819 -0.995204 0.000000
0.230300 0.569700 0.160000 -0.635782 0.771869 0.000000
0.266600 0.599600 0.160000 -0.635782 0.771869 0.000000
0.266600 0.599600 0.000000 -0.635782 0.771869 0.000000
0.230300 0.569700 0.000000 -0.635782 0.771869 0.000000
0.599500 0.266700 0.160000 0.773768 -0.633469 0.000000
0.569700 0.230300 0.160000 0.773768 -0.633469 0.000000
0.569700 0.230300 0.000000 0.773768 -0.633469 0.000000
0.599500 0.266700 0.000000 0.773768 -0.633469 0.000000
0.308100 0.178300 0.160000 -0.471691 -0.881764 0.000000
0.266600 0.200500 0.160000 -0.471691 -0.881764 0.000000
0.266600 0.200500 0.000000 -0.471691 -0.881764 0.000000
0.308100 0.178300 0.000000 -0.471691 -0.881764 0.000000
0.164600 0.353200 0.160000 -0.995204 -0.097819 0.000000
0.160000 0.400000 0.160000 -0.995204 -0.097819 0.000000
0.160000 0.400000 0.000000 -0.995204 -0.097819 0.000000
0.164600 0.353200 0.000000 -0.995204 -0.097819 0.000000
0.533300 0.599600 0.160000 0.634739 0.772726 0.000000
0.569700 0.569700 0.160000 0.634739 0.772726 0.000000
0.569700 0.569700 0.000000 0.634739 0.772726 0.000000
0.533300 0.599600 0.000000 0.634739 0.772726 0.000000
0.491800 0.621800 0.160000 0.471691 0.881764 0.000000
0.533300 0.599600 0.160000 0.471691 0.881764 0.000000
0.533300 0.599600 0.000000 0.471691 0.881764 0.000000
0.491800 0.621800 0.000000 0.471691 0.881764 0.000000
0.200400 0.266700 0.160000 -0.882647 -0.470036 0.000000
0.178300 0.308200 0.160000 -0.882647 -0.470036 0.000000
0.178300 0.308200 0.000000 -0.882647 -0.470036 0.000000
0.200400 0.266700 0.000000 -0.882647 -0.470036 0.000000
0.308100 0.621800 0.160000 -0.288711 0.957416 0.000000
0.353200 0.635400 0.160000 -0.288711 0.957416 0.000000
0.353200 0.635400 0.000000 -0.288711 0.957416 0.000000
0.308100 0.621800 0.000000 -0.288711 0.957416 0.000000
0.178300 0.491900 0.160000 -0.882647 0.470036 0.000000
0.200400 0.533400 0.160000 -0.882647 0.470036 0.000000
0.200400 0.533400 0.000000 -0.882647 0.470036 0.000000
0.178300 0.491900 0.000000 -0.882647 0.470036 0.000000
0.230300 0.230300 0.160000 -0.772726 -0.634739 0.000000
0.200400 0.266700 0.160000 -0.772726 -0.634739 0.000000
0.200400 0.266700 0.000000 -0.772726 -0.634739 0.000000
0.230300 0.230300 0.000000 -0.772726 -0.634739 0.000000
0.230300 0.230300 0.160000 0.000000 0.000000 1.000000
0.266600 0.200500 0.160000 0.000000 0.000000 1.000000
0.399981 0.400031 0.160000 0.000000 0.000000 1.000000
0.399981 0.400031 0.160000 0.000000 0.000000 1.000000
0.230300 0.569700 0.160000 0.000000 -0.000000 1.000000
0.200400 0.533400 0.160000 0.000000 -0.000000 1.000000
0.399981 0.400031 0.160000 0.000000 -0.000000 1.000000
0.399981 0.400031 0.160000 0.000000 -0.000000 1.000000
0.160000 0.400000 0.160000 0.000000 0.000000 1.000000
0.164600 0.353200 0.160000 0.000000 0.000000 1.000000
0.399981 0.400031 0.160000 0.000000 0.000000 1.000000
0.399981 0.400031 0.160000 0.000000 0.000000 1.000000
0.621700 0.491900 0.160000 -0.000000 -0.000000 1.000000
0.599500 0.533400 0.160000 -0.000000 -0.000000 1.000000
0.399981 0.400031 0.160000 -0.000000 -0.000000 1.000000
0.399981 0.400031 0.160000 -0.000000 -0.000000 1.000000
0.491800 0.621800 0.160000 -0.000000 -0.000000 1.000000
0.446800 0.635400 0.160000 -0.000000 -0.000000 1.000000
0.399981 0.400031 0.160000 -0.000000 -0.000000 1.000000
0.399981 0.400031 0.160000 -0.000000 -0.000000 1.000000
0.164600 0.446900 0.160000 0.000000 -0.000000 1.000000
0.399981 0.400031 0.160000 0.000000 -0.000000 1.000000
0.569700 0.230300 0.160000 -0.000000 0.000000 1.000000
0.599500 0.266700 0.160000 -0.000000 0.000000 1.000000
0.399981 0.400031 0.160000 -0.000000 0.000000 1.000000
0.399981 0.400031 0.160000 -0.000000 0.000000 1.000000
0.621700 0.308200 0.160000 -0.000000 0.000000 1.000000
0.635400 0.353200 0.160000 -0.000000 0.000000 1.000000
0.399981 0.400031 0.160000 -0.000000 0.000000 1.000000
0.399981 0.400031 0.160000 -0.000000 0.000000 1.000000
0.353200 0.164600 0.160000 0.000000 0.000000 1.000000
0.400000 0.160000 0.160000 0.000000 0.000000 1.000000
0.399981 0.400031 0.160000 0.000000 0.000000 1.000000
0.399981 0.400031 0.160000 0.000000 0.000000 1.000000
0.569700 0.569700 0.160000 -0.000000 -0.000000 1.000000
0.399981 0.400031 0.160000 -0.000000 -0.000000 1.000000
0.353200 0.635400 0.160000 0.000000 -0.000000 1.000000
0.308100 0.621800 0.160000 0.000000 -0.000000 1.000000
0.399981 0.400031 0.160000 0.000000 -0.000000 1.000000
0.399981 0.400031 0.160000 0.000000 -0.000000 1.000000
0.533300 0.599600 0.160000 -0.000000 -0.000000 1.000000
0.399981 0.400031 0.160000 -0.000000 -0.000000 1.000000
0.400000 0.640000 0.160000 0.000000 -0.000000 1.000000
0.399981 0.400031 0.160000 0.000000 -0.000000 1.000000
0.200400 0.266700 0.160000 0.000000 0.000000 1.000000
0.399981 0.400031 0.160000 0.000000 0.000000 1.000000
0.178300 0.308200 0.160000 0.000000 0.000000 1.000000
0.399981 0.400031 0.160000 0.000000 0.000000 1.000000
0.266600 0.599600 0.160000 0.000000 -0.000000 1.000000
0.399981 0.400031 0.160000 0.000000 -0.000000 1.000000
0.491800 0.178300 0.160000 -0.000000 0.000000 1.000000
0.533300 0.200500 0.160000 -0.000000 0.000000 1.000000
0.399981 0.400031 0.160000 -0.000000 0.000000 1.000000
0.399981 0.400031 0.160000 -0.000000 0.000000 1.000000
0.178300 0.491900 0.160000 0.000000 -0.000000 1.000000
0.399981 0.400031 0.160000 0.000000 -0.000000 1.000000
0.446800 0.164600 0.160000 -0.000000 0.000000 1.000000
0.399981 0.400031 0.160000 -0.000000 0.000000 1.000000
0.635400 0.446900 0.160000 -0.000000 -0.000000 1.000000
0.399981 0.400031 0.160000 -0.000000 -0.000000 1.000000
0.308100 0.178300 0.160000 0.000000 0.000000 1.000000
0.399981 0.400031 0.160000 0.000000 0.000000 1.000000
0.640000 0.400000 0.160000 -0.000000 -0.000000 1.000000
0.399981 0.400031 0.160000 -0.000000 -0.000000 1.000000
0.491800 0.178300 0.160000 0.291246 -0.956648 0.000000
0.446800 0.164600 0.160000 0.291246 -0.956648 0.000000
0.446800 0.164600 0.000000 0.291246 -0.956648 0.000000
0.491800 0.178300 0.000000 0.291246 -0.956648 0.000000
4 0 1 2 3
4 4 5 6 7
4 8 9 10 11
4 12 13 14 15
4 16 17 18 19
4 20 21 22 23
4 24 25 26 27
4 28 29 30 31
4 32 33 34 35
4 36 37 38 39
4 40 41 42 43
4 44 45 46 47
4 48 49 50 51
4 52 53 54 55
4 56 57 58 59
4 60 61 62 63
4 64 65 66 67
4 68 69 70 71
4 72 73 74 75
4 76 77 78 79
4 80 81 82 83
4 84 85 86 87
4 88 89 90 91
4 92 93 94 95
4 96 97 98 99
4 100 101 102 103
4 104 105 106 107
4 108 109 110 111
4 112 113 114 115
4 116 117 118 119
4 120 121 122 123
4 124 125 126 127
4 128 129 130 131
4 132 133 134 135
4 136 137 138 139
4 140 141 142 143
4 144 132 135 145
4 146 147 148 149
4 150 151 152 153
4 154 155 156 157
4 137 158 159 138
4 160 161 162 163
4 164 140 143 165
4 166 160 163 167
4 168 124 127 169
4 170 168 169 171
4 172 128 131 173
4 174 175 176 177
4 178 144 145 179
4 161 172 173 162
4 158 164 165 159
4 155 180 181 156
4 182 136 139 183
4 133 170 171 134
4 147 150 153 148
4 180 174 177 181
4 125 184 185 126
4 186 182 183 187
4 151 186 187 152
4 184 154 157 185
4 129 178 179 130
4 175 146 149 176
4 141 166 167 142
4 188 189 190 191
