ply
format ascii 1.0
comment Created by Blender 2.79 (sub 0) - www.blender.org, source file: ''
element vertex 144
property float x
property float y
property float z
property float nx
property float ny
property float nz
element face 121
property list uchar uint vertex_indices
end_header
8.181818 8.181818 0.000000 0.000000 0.000000 1.000000
10.000000 8.181818 0.000000 0.000000 0.000000 1.000000
10.000000 10.000000 0.000000 0.000000 0.000000 1.000000
8.181818 10.000000 0.000000 0.000000 0.000000 1.000000
-10.000000 8.181818 0.000000 0.000000 0.000000 1.000000
-8.181818 8.181818 0.000000 0.000000 0.000000 1.000000
-8.181818 10.000000 0.000000 0.000000 0.000000 1.000000
-10.000000 10.000000 0.000000 0.000000 0.000000 1.000000
-6.363636 8.181818 0.000000 0.000000 0.000000 1.000000
-6.363636 10.000000 0.000000 0.000000 0.000000 1.000000
-4.545455 8.181818 0.000000 0.000000 0.000000 1.000000
-4.545455 10.000000 0.000000 0.000000 0.000000 1.000000
-2.727273 8.181818 0.000000 0.000000 0.000000 1.000000
-2.727273 10.000000 0.000000 0.000000 0.000000 1.000000
-0.909091 8.181818 0.000000 0.000000 0.000000 1.000000
-0.909091 10.000000 0.000000 0.000000 0.000000 1.000000
0.909091 8.181818 0.000000 0.000000 0.000000 1.000000
0.909091 10.000000 0.000000 0.000000 0.000000 1.000000
2.727273 8.181818 0.000000 0.000000 0.000000 1.000000
2.727273 10.000000 0.000000 0.000000 0.000000 1.000000
4.545455 8.181818 0.000000 0.000000 0.000000 1.000000
4.545455 10.000000 0.000000 0.000000 0.000000 1.000000
6.363636 8.181818 0.000000 0.000000 0.000000 1.000000
6.363636 10.000000 0.000000 0.000000 0.000000 1.000000
-10.000000 -10.000000 0.000000 0.000000 0.000000 1.000000
-8.181818 -10.000000 0.000000 0.000000 0.000000 1.000000
-8.181818 -8.181818 0.000000 0.000000 0.000000 1.000000
-10.000000 -8.181818 0.000000 0.000000 0.000000 1.000000
-8.181818 -6.363636 0.000000 0.000000 0.000000 1.000000
-10.000000 -6.363636 0.000000 0.000000 0.000000 1.000000
-8.181818 -4.545455 0.000000 0.000000 0.000000 1.000000
-10.000000 -4.545455 0.000000 0.000000 0.000000 1.000000
-8.181818 -2.727273 0.000000 0.000000 0.000000 1.000000
-10.000000 -2.727273 0.000000 0.000000 0.000000 1.000000
-8.181818 -0.909091 0.000000 0.000000 0.000000 1.000000
-10.000000 -0.909091 0.000000 0.000000 0.000000 1.000000
-8.181818 0.909091 0.000000 0.000000 0.000000 1.000000
-10.000000 0.909091 0.000000 0.000000 0.000000 1.000000
-8.181818 2.727273 0.000000 0.000000 0.000000 1.000000
-10.000000 2.727273 0.000000 0.000000 0.000000 1.000000
-8.181818 4.545455 0.000000 0.000000 0.000000 1.000000
-10.000000 4.545455 0.000000 0.000000 0.000000 1.000000
-8.181818 6.363636 0.000000 0.000000 0.000000 1.000000
-10.000000 6.363636 0.000000 0.000000 0.000000 1.000000
-6.363636 -10.000000 0.000000 0.000000 0.000000 1.000000
-6.363636 -8.181818 0.000000 0.000000 0.000000 1.000000
-6.363636 -6.363636 0.000000 0.000000 0.000000 1.000000
-6.363636 -4.545455 0.000000 0.000000 0.000000 1.000000
-6.363636 -2.727273 0.000000 0.000000 0.000000 1.000000
-6.363636 -0.909091 0.000000 0.000000 0.000000 1.000000
-6.363636 0.909091 0.000000 0.000000 0.000000 1.000000
-6.363636 2.727273 0.000000 0.000000 0.000000 1.000000
-6.363636 4.545455 0.000000 0.000000 0.000000 1.000000
-6.363636 6.363636 0.000000 0.000000 0.000000 1.000000
-4.545455 -10.000000 0.000000 0.000000 0.000000 1.000000
-4.545455 -8.181818 0.000000 0.000000 0.000000 1.000000
-4.545455 -6.363636 0.000000 0.000000 0.000000 1.000000
-4.545455 -4.545455 0.000000 0.000000 0.000000 1.000000
-4.545455 -2.727273 0.000000 0.000000 0.000000 1.000000
-4.545455 -0.909091 0.000000 0.000000 0.000000 1.000000
-4.545455 0.909091 0.000000 0.000000 0.000000 1.000000
-4.545455 2.727273 0.000000 0.000000 0.000000 1.000000
-4.545455 4.545455 0.000000 0.000000 0.000000 1.000000
-4.545455 6.363636 0.000000 0.000000 0.000000 1.000000
-2.727273 -10.000000 0.000000 0.000000 0.000000 1.000000
-2.727273 -8.181818 0.000000 0.000000 0.000000 1.000000
-2.727273 -6.363636 0.000000 0.000000 0.000000 1.000000
-2.727273 -4.545455 0.000000 0.000000 0.000000 1.000000
-2.727273 -2.727273 0.000000 0.000000 0.000000 1.000000
-2.727273 -0.909091 0.000000 0.000000 0.000000 1.000000
-2.727273 0.909091 0.000000 0.000000 0.000000 1.000000
-2.727273 2.727273 0.000000 0.000000 0.000000 1.000000
-2.727273 4.545455 0.000000 0.000000 0.000000 1.000000
-2.727273 6.363636 0.000000 0.000000 0.000000 1.000000
-0.909091 -10.000000 0.000000 0.000000 0.000000 1.000000
-0.909091 -8.181818 0.000000 0.000000 0.000000 1.000000
-0.909091 -6.363636 0.000000 0.000000 0.000000 1.000000
-0.909091 -4.545455 0.000000 0.000000 0.000000 1.000000
-0.909091 -2.727273 0.000000 0.000000 0.000000 1.000000
-0.909091 -0.909091 0.000000 0.000000 0.000000 1.000000
-0.909091 0.909091 0.000000 0.000000 0.000000 1.000000
-0.909091 2.727273 0.000000 0.000000 0.000000 1.000000
-0.909091 4.545455 0.000000 0.000000 0.000000 1.000000
-0.909091 6.363636 0.000000 0.000000 0.000000 1.000000
0.909091 -10.000000 0.000000 0.000000 0.000000 1.000000
0.909091 -8.181818 0.000000 0.000000 0.000000 1.000000
0.909091 -6.363636 0.000000 0.000000 0.000000 1.000000
0.909091 -4.545455 0.000000 0.000000 0.000000 1.000000
0.909091 -2.727273 0.000000 0.000000 0.000000 1.000000
0.909091 -0.909091 0.000000 0.000000 0.000000 1.000000
0.909091 0.909091 0.000000 0.000000 0.000000 1.000000
0.909091 2.727273 0.000000 0.000000 0.000000 1.000000
0.909091 4.545455 0.000000 0.000000 0.000000 1.000000
0.909091 6.363636 0.000000 0.000000 0.000000 1.000000
2.727273 -10.000000 0.000000 0.000000 0.000000 1.000000
2.727273 -8.181818 0.000000 0.000000 0.000000 1.000000
2.727273 -6.363636 0.000000 0.000000 0.000000 1.000000
2.727273 -4.545455 0.000000 0.000000 0.000000 1.000000
2.727273 -2.727273 0.000000 0.000000 0.000000 1.000000
2.727273 -0.909091 0.000000 0.000000 0.000000 1.000000
2.727273 0.909091 0.000000 0.000000 0.000000 1.000000
2.727273 2.727273 0.000000 0.000000 0.000000 1.000000
2.727273 4.545455 0.000000 0.000000 0.000000 1.000000
2.727273 6.363636 0.000000 0.000000 0.000000 1.000000
4.545455 -10.000000 0.000000 0.000000 0.000000 1.000000
4.545455 -8.181818 0.000000 0.000000 0.000000 1.000000
4.545455 -6.363636 0.000000 0.000000 0.000000 1.000000
4.545455 -4.545455 0.000000 0.000000 0.000000 1.000000
4.545455 -2.727273 0.000000 0.000000 0.000000 1.000000
4.545455 -0.909091 0.000000 0.000000 0.000000 1.000000
4.545455 0.909091 0.000000 0.000000 0.000000 1.000000
4.545455 2.727273 0.000000 0.000000 0.000000 1.000000
4.545455 4.545455 0.000000 0.000000 0.000000 1.000000
4.545455 6.363636 0.000000 0.000000 0.000000 1.000000
6.363636 -10.000000 0.000000 0.000000 0.000000 1.000000
6.363636 -8.181818 0.000000 0.000000 0.000000 1.000000
6.363636 -6.363636 0.000000 0.000000 0.000000 1.000000
6.363636 -4.545455 0.000000 0.000000 0.000000 1.000000
6.363636 -2.727273 0.000000 0.000000 0.000000 1.000000
6.363636 -0.909091 0.000000 0.000000 0.000000 1.000000
6.363636 0.909091 0.000000 0.000000 0.000000 1.000000
6.363636 2.727273 0.000000 0.000000 0.000000 1.000000
6.363636 4.545455 0.000000 0.000000 0.000000 1.000000
6.363636 6.363636 0.000000 0.000000 0.000000 1.000000
8.181818 -10.000000 0.000000 0.000000 0.000000 1.000000
8.181818 -8.181818 0.000000 0.000000 0.000000 1.000000
8.181818 -6.363636 0.000000 0.000000 0.000000 1.000000
8.181818 -4.545455 0.000000 0.000000 0.000000 1.000000
8.181818 -2.727273 0.000000 0.000000 0.000000 1.000000
8.181818 -0.909091 0.000000 0.000000 0.000000 1.000000
8.181818 0.909091 0.000000 0.000000 0.000000 1.000000
8.181818 2.727273 0.000000 0.000000 0.000000 1.000000
8.181818 4.545455 0.000000 0.000000 0.000000 1.000000
8.181818 6.363636 0.000000 0.000000 0.000000 1.000000
10.000000 -10.000000 0.000000 0.000000 0.000000 1.000000
10.000000 -8.181818 0.000000 0.000000 0.000000 1.000000
10.000000 -6.363636 0.000000 0.000000 0.000000 1.000000
10.000000 -4.545455 0.000000 0.000000 0.000000 1.000000
10.000000 -2.727273 0.000000 0.000000 0.000000 1.000000
10.000000 -0.909091 0.000000 0.000000 0.000000 1.000000
10.000000 0.909091 0.000000 0.000000 0.000000 1.000000
10.000000 2.727273 0.000000 0.000000 0.000000 1.000000
10.000000 4.545455 0.000000 0.000000 0.000000 1.000000
10.000000 6.363636 0.000000 0.000000 0.000000 1.000000
4 0 1 2 3
4 4 5 6 7
4 5 8 9 6
4 8 10 11 9
4 10 12 13 11
4 12 14 15 13
4 14 16 17 15
4 16 18 19 17
4 18 20 21 19
4 20 22 23 21
4 22 0 3 23
4 24 25 26 27
4 27 26 28 29
4 29 28 30 31
4 31 30 32 33
4 33 32 34 35
4 35 34 36 37
4 37 36 38 39
4 39 38 40 41
4 41 40 42 43
4 43 42 5 4
4 25 44 45 26
4 26 45 46 28
4 28 46 47 30
4 30 47 48 32
4 32 48 49 34
4 34 49 50 36
4 36 50 51 38
4 38 51 52 40
4 40 52 53 42
4 42 53 8 5
4 44 54 55 45
4 45 55 56 46
4 46 56 57 47
4 47 57 58 48
4 48 58 59 49
4 49 59 60 50
4 50 60 61 51
4 51 61 62 52
4 52 62 63 53
4 53 63 10 8
4 54 64 65 55
4 55 65 66 56
4 56 66 67 57
4 57 67 68 58
4 58 68 69 59
4 59 69 70 60
4 60 70 71 61
4 61 71 72 62
4 62 72 73 63
4 63 73 12 10
4 64 74 75 65
4 65 75 76 66
4 66 76 77 67
4 67 77 78 68
4 68 78 79 69
4 69 79 80 70
4 70 80 81 71
4 71 81 82 72
4 72 82 83 73
4 73 83 14 12
4 74 84 85 75
4 75 85 86 76
4 76 86 87 77
4 77 87 88 78
4 78 88 89 79
4 79 89 90 80
4 80 90 91 81
4 81 91 92 82
4 82 92 93 83
4 83 93 16 14
4 84 94 95 85
4 85 95 96 86
4 86 96 97 87
4 87 97 98 88
4 88 98 99 89
4 89 99 100 90
4 90 100 101 91
4 91 101 102 92
4 92 102 103 93
4 93 103 18 16
4 94 104 105 95
4 95 105 106 96
4 96 106 107 97
4 97 107 108 98
4 98 108 109 99
4 99 109 110 100
4 100 110 111 101
4 101 111 112 102
4 102 112 113 103
4 103 113 20 18
4 104 114 115 105
4 105 115 116 106
4 106 116 117 107
4 107 117 118 108
4 108 118 119 109
4 109 119 120 110
4 110 120 121 111
4 111 121 122 112
4 112 122 123 113
4 113 123 22 20
4 114 124 125 115
4 115 125 126 116
4 116 126 127 117
4 117 127 128 118
4 118 128 129 119
4 119 129 130 120
4 120 130 131 121
4 121 131 132 122
4 122 132 133 123
4 123 133 0 22
4 124 134 135 125
4 125 135 136 126
4 126 136 137 127
4 127 137 138 128
4 128 138 139 129
4 129 139 140 130
4 130 140 141 131
4 131 141 142 132
4 132 142 143 133
4 133 143 1 0
