ply
format ascii 1.0
comment Created by Blender 2.79 (sub 0) - www.blender.org, source file: 'base.blend'
element vertex 162
property float x
property float y
property float z
property float nx
property float ny
property float nz
element face 77
property list uchar uint vertex_indices
end_header
0.007723 -0.002071 -0.000008 0.866288 -0.499462 -0.009031
0.007733 -0.002060 0.001689 0.866288 -0.499462 -0.009031
0.005674 -0.005656 0.001689 0.866288 -0.499462 -0.009031
0.005645 -0.005650 -0.000008 0.866288 -0.499462 -0.009031
0.005645 -0.005650 -0.000008 0.500588 -0.865610 -0.011428
0.005674 -0.005656 0.001689 0.500588 -0.865610 -0.011428
0.002089 -0.007729 0.001689 0.500588 -0.865610 -0.011428
0.002061 -0.007723 -0.000008 0.500588 -0.865610 -0.011428
-0.001069 -0.025148 -0.000008 0.000000 -0.000000 -1.000000
0.001059 -0.025147 -0.000008 0.000000 -0.000000 -1.000000
-0.000005 -0.025644 -0.000008 0.000000 -0.000000 -1.000000
-0.002080 -0.007726 -0.000008 -0.499606 -0.866253 -0.000139
-0.002051 -0.007732 0.001689 -0.499606 -0.866253 -0.000139
-0.005650 -0.005667 0.001689 -0.499606 -0.866253 -0.000139
-0.005655 -0.005653 -0.000008 -0.499606 -0.866253 -0.000139
-0.001069 -0.025148 -0.000008 -0.816165 -0.577688 0.012299
-0.001038 -0.025155 0.001689 -0.816165 -0.577688 0.012299
-0.002046 -0.023732 0.001689 -0.816165 -0.577688 0.012299
-0.002075 -0.023726 -0.000008 -0.816165 -0.577688 0.012299
0.001090 -0.025153 0.001689 0.000000 -0.000000 1.000000
-0.001038 -0.025155 0.001689 0.000000 -0.000000 1.000000
0.000027 -0.025650 0.001689 0.000000 -0.000000 1.000000
0.002061 -0.007723 -0.000008 0.999858 0.000300 -0.016857
0.002089 -0.007729 0.001689 0.999858 0.000300 -0.016857
0.002094 -0.023729 0.001689 0.999858 0.000300 -0.016857
0.002065 -0.023723 -0.000008 0.999858 0.000300 -0.016857
-0.002051 -0.007732 0.001689 -0.999858 -0.000300 0.016857
-0.002080 -0.007726 -0.000008 -0.999858 -0.000300 0.016857
-0.002075 -0.023726 -0.000008 -0.999858 -0.000300 0.016857
-0.002046 -0.023732 0.001689 -0.999858 -0.000300 0.016857
0.001059 -0.025147 -0.000008 0.423100 -0.906012 -0.011352
0.001090 -0.025153 0.001689 0.423100 -0.906012 -0.011352
0.000027 -0.025650 0.001689 0.423100 -0.906012 -0.011352
-0.000005 -0.025644 -0.000008 0.423100 -0.906012 -0.011352
0.002065 -0.023723 -0.000008 0.816835 -0.576636 -0.016476
0.002094 -0.023729 0.001689 0.816835 -0.576636 -0.016476
0.001090 -0.025153 0.001689 0.816835 -0.576636 -0.016476
0.001059 -0.025147 -0.000008 0.816835 -0.576636 -0.016476
0.002094 -0.023729 0.001689 0.000000 0.000000 1.000000
0.002089 -0.007729 0.001689 0.000000 0.000000 1.000000
-0.002051 -0.007732 0.001689 0.000000 0.000000 1.000000
-0.002046 -0.023732 0.001689 -0.000000 -0.000000 1.000000
-0.000005 -0.025644 -0.000008 -0.421937 -0.906614 0.004407
0.000027 -0.025650 0.001689 -0.421937 -0.906614 0.004407
-0.001038 -0.025155 0.001689 -0.421937 -0.906614 0.004407
-0.001069 -0.025148 -0.000008 -0.421937 -0.906614 0.004407
-0.002075 -0.023726 -0.000008 0.000000 -0.000000 -1.000000
-0.002080 -0.007726 -0.000008 0.000000 -0.000000 -1.000000
0.002061 -0.007723 -0.000008 0.000000 -0.000000 -1.000000
0.002065 -0.023723 -0.000008 0.000000 0.000000 -1.000000
-0.002068 0.007724 -0.000008 -0.000597 0.999959 -0.009031
-0.002083 0.007727 0.001689 -0.000597 0.999959 -0.009031
0.002061 0.007742 0.001689 -0.000597 0.999959 -0.009031
0.002071 0.007714 -0.000008 -0.000597 0.999959 -0.009031
0.002071 0.007714 -0.000008 0.499347 0.866327 -0.011428
0.002061 0.007742 0.001689 0.499347 0.866327 -0.011428
0.005649 0.005674 0.001689 0.499347 0.866327 -0.011428
0.005658 0.005646 -0.000008 0.499347 0.866327 -0.011428
0.022314 0.011648 -0.000008 -0.000000 -0.000000 -1.000000
0.021249 0.013490 -0.000008 -0.000000 -0.000000 -1.000000
0.022211 0.012817 -0.000008 -0.000000 -0.000000 -1.000000
0.007733 -0.002060 0.001689 1.000000 0.000455 -0.000139
0.007723 -0.002071 -0.000008 1.000000 0.000455 -0.000139
0.007731 0.002062 -0.000008 1.000000 0.000455 -0.000139
0.007721 0.002089 0.001689 1.000000 0.000455 -0.000139
0.022314 0.011648 -0.000008 0.908375 -0.417975 0.012299
0.022304 0.011679 0.001689 0.908375 -0.417975 0.012299
0.021575 0.010094 0.001689 0.908375 -0.417975 0.012299
0.021585 0.010066 -0.000008 0.908375 -0.417975 0.012299
0.021239 0.013521 0.001689 0.000000 0.000000 1.000000
0.022304 0.011679 0.001689 0.000000 0.000000 1.000000
0.022200 0.012848 0.001689 0.000000 0.000000 1.000000
0.005658 0.005646 -0.000008 -0.500189 0.865752 -0.016857
0.005649 0.005674 0.001689 -0.500189 0.865752 -0.016857
0.019503 0.013678 0.001689 -0.500189 0.865752 -0.016857
0.019512 0.013650 -0.000008 -0.500189 0.865752 -0.016857
0.007721 0.002089 0.001689 0.500189 -0.865752 0.016857
0.007731 0.002062 -0.000008 0.500189 -0.865752 0.016857
0.021585 0.010066 -0.000008 0.500189 -0.865752 0.016857
0.021575 0.010094 0.001689 0.500189 -0.865752 0.016857
0.021249 0.013490 -0.000008 0.573079 0.819421 -0.011351
0.021239 0.013521 0.001689 0.573079 0.819421 -0.011351
0.022200 0.012848 0.001689 0.573079 0.819421 -0.011351
0.022211 0.012817 -0.000008 0.573079 0.819421 -0.011351
0.019512 0.013650 -0.000008 0.090963 0.995718 -0.016476
0.019503 0.013678 0.001689 0.090963 0.995718 -0.016476
0.021239 0.013521 0.001689 0.090963 0.995718 -0.016476
0.021249 0.013490 -0.000008 0.090963 0.995718 -0.016476
0.019503 0.013678 0.001689 0.000000 0.000000 1.000000
0.005649 0.005674 0.001689 0.000000 0.000000 1.000000
0.007721 0.002089 0.001689 0.000000 0.000000 1.000000
0.021575 0.010094 0.001689 0.000000 0.000000 1.000000
0.022211 0.012817 -0.000008 0.996120 0.087898 0.004409
0.022200 0.012848 0.001689 0.996120 0.087898 0.004409
0.022304 0.011679 0.001689 0.996120 0.087898 0.004409
0.022314 0.011648 -0.000008 0.996120 0.087898 0.004409
0.021585 0.010066 -0.000008 0.000000 0.000000 -1.000000
0.007731 0.002062 -0.000008 0.000000 0.000000 -1.000000
0.005658 0.005646 -0.000008 0.000000 0.000000 -1.000000
0.019512 0.013650 -0.000008 0.000000 -0.000000 -1.000000
-0.005655 -0.005653 -0.000008 -0.865691 -0.500497 -0.009031
-0.005650 -0.005667 0.001689 -0.865691 -0.500497 -0.009031
-0.007735 -0.002086 0.001689 -0.865691 -0.500497 -0.009031
-0.007716 -0.002064 -0.000008 -0.865691 -0.500497 -0.009031
-0.007716 -0.002064 -0.000008 -0.999934 -0.000717 -0.011429
-0.007735 -0.002086 0.001689 -0.999934 -0.000717 -0.011429
-0.007738 0.002055 0.001689 -0.999934 -0.000717 -0.011429
-0.007719 0.002077 -0.000008 -0.999934 -0.000717 -0.011429
-0.021245 0.013500 -0.000008 0.000000 -0.000000 -1.000000
-0.022307 0.011657 -0.000008 0.000000 -0.000000 -1.000000
-0.022205 0.012827 -0.000008 0.000000 -0.000000 -1.000000
-0.005651 0.005664 -0.000008 -0.500394 0.865798 -0.000139
-0.005670 0.005642 0.001689 -0.500394 0.865798 -0.000139
-0.002083 0.007727 0.001689 -0.500394 0.865798 -0.000139
-0.002068 0.007724 -0.000008 -0.500394 0.865798 -0.000139
-0.021245 0.013500 -0.000008 -0.092211 0.995664 0.012298
-0.021266 0.013476 0.001689 -0.092211 0.995664 0.012298
-0.019529 0.013638 0.001689 -0.092211 0.995664 0.012298
-0.019510 0.013660 -0.000008 -0.092211 0.995664 0.012298
-0.022328 0.011633 0.001689 -0.000000 0.000000 1.000000
-0.021266 0.013476 0.001689 -0.000000 0.000000 1.000000
-0.022227 0.012802 0.001689 -0.000000 0.000000 1.000000
-0.007719 0.002077 -0.000008 -0.499669 -0.866053 -0.016857
-0.007738 0.002055 0.001689 -0.499669 -0.866053 -0.016857
-0.021597 0.010051 0.001689 -0.499669 -0.866053 -0.016857
-0.021577 0.010073 -0.000008 -0.499669 -0.866053 -0.016857
-0.005670 0.005642 0.001689 0.499669 0.866053 0.016857
-0.005651 0.005664 -0.000008 0.499669 0.866053 0.016857
-0.019510 0.013660 -0.000008 0.499669 0.866053 0.016857
-0.019529 0.013638 0.001689 0.499669 0.866053 0.016857
-0.022307 0.011657 -0.000008 -0.996179 0.086592 -0.011353
-0.022328 0.011633 0.001689 -0.996179 0.086592 -0.011353
-0.022227 0.012802 0.001689 -0.996179 0.086592 -0.011353
-0.022205 0.012827 -0.000008 -0.996179 0.086592 -0.011353
-0.021577 0.010073 -0.000008 -0.907799 -0.419082 -0.016478
-0.021597 0.010051 0.001689 -0.907799 -0.419082 -0.016478
-0.022328 0.011633 0.001689 -0.907799 -0.419082 -0.016478
-0.022307 0.011657 -0.000008 -0.907799 -0.419082 -0.016478
-0.021597 0.010051 0.001689 -0.000000 0.000000 1.000000
-0.007738 0.002055 0.001689 -0.000000 0.000000 1.000000
-0.005670 0.005642 0.001689 -0.000000 0.000000 1.000000
-0.019529 0.013638 0.001689 -0.000000 -0.000000 1.000000
-0.022205 0.012827 -0.000008 -0.574182 0.818716 0.004409
-0.022227 0.012802 0.001689 -0.574182 0.818716 0.004409
-0.021266 0.013476 0.001689 -0.574182 0.818716 0.004409
-0.021245 0.013500 -0.000008 -0.574182 0.818716 0.004409
-0.019510 0.013660 -0.000008 0.000000 0.000000 -1.000000
-0.005651 0.005664 -0.000008 0.000000 0.000000 -1.000000
-0.007719 0.002077 -0.000008 0.000000 0.000000 -1.000000
-0.021577 0.010073 -0.000008 -0.000000 -0.000000 -1.000000
0.005674 -0.005656 0.001689 -0.000000 0.000000 1.000000
0.007733 -0.002060 0.001689 -0.000000 0.000000 1.000000
0.002061 0.007742 0.001689 0.000000 0.000000 1.000000
-0.002083 0.007727 0.001689 0.000000 0.000000 1.000000
-0.007735 -0.002086 0.001689 -0.000000 -0.000000 1.000000
-0.005650 -0.005667 0.001689 -0.000000 -0.000000 1.000000
0.007723 -0.002071 -0.000008 0.000000 0.000000 -1.000000
0.005645 -0.005650 -0.000008 0.000000 0.000000 -1.000000
-0.005655 -0.005653 -0.000008 0.000000 0.000000 -1.000000
-0.007716 -0.002064 -0.000008 0.000000 0.000000 -1.000000
-0.002068 0.007724 -0.000008 -0.000000 -0.000000 -1.000000
0.002071 0.007714 -0.000008 -0.000000 -0.000000 -1.000000
4 0 1 2 3
4 4 5 6 7
3 8 9 10
4 11 12 13 14
4 15 16 17 18
3 19 20 21
4 22 23 24 25
4 26 27 28 29
4 30 31 32 33
4 34 35 36 37
3 38 39 40
3 40 41 20
3 20 19 38
3 40 20 38
4 42 43 44 45
3 46 47 48
3 48 49 9
3 9 8 46
3 48 9 46
4 50 51 52 53
4 54 55 56 57
3 58 59 60
4 61 62 63 64
4 65 66 67 68
3 69 70 71
4 72 73 74 75
4 76 77 78 79
4 80 81 82 83
4 84 85 86 87
3 88 89 90
3 90 91 70
3 70 69 88
3 90 70 88
4 92 93 94 95
3 96 97 98
3 98 99 59
3 59 58 96
3 98 59 96
4 100 101 102 103
4 104 105 106 107
3 108 109 110
4 111 112 113 114
4 115 116 117 118
3 119 120 121
4 122 123 124 125
4 126 127 128 129
4 130 131 132 133
4 134 135 136 137
3 138 139 140
3 140 141 120
3 120 119 138
3 140 120 138
4 142 143 144 145
3 146 147 148
3 148 149 109
3 109 108 146
3 148 109 146
3 39 150 151
3 151 90 89
3 89 152 153
3 153 140 139
3 139 154 155
3 155 40 39
3 39 151 89
3 89 153 139
3 139 155 39
3 89 139 39
3 97 156 157
3 157 48 47
3 47 158 159
3 159 148 147
3 147 160 161
3 161 98 97
3 97 157 47
3 47 159 147
3 147 161 97
3 47 147 97
